# xmcd
#
# Track frame offsets:
#	150
#	20457
#	49932
#	91297
#	116435
#	139787
#	159552
#	188667
#	214020
#	237552
#
# Disc length: 3528 seconds
#
# Revision: 1
# Processed by: cddbd v1.5.2PL0 Copyright (c) Steve Scherf et al.
# Submitted via: EZCDAudioConverter 8.0.2.1
#
DISCID=840dc60a
DTITLE=Various Artist - Chiều Bên Đồi Sim
DYEAR=2002
DGENRE=
TTITLE0=Như Quỳnh, Trường Vũ - Chiều Bên Đồi Sim
TTITLE1=Phương Diễm Hạnh, Tâm Đoan - LK Trúc Phương
TTITLE2=Phi Nhung, Mạnh Quỳnh - Tân cổ Duyên nghèo
TTITLE3=Tâm Đoan - Kẻ đến sau
TTITLE4=Như Quỳnh - Em không còn buồn nữa chị ơi
TTITLE5=Phi Nhung - Người tình trong lý tưởng
TTITLE6=Như Quỳnh, Trường Vũ - LK Khi không, Trách người trong mộng
TTITLE7=Phương Diễm Hạnh - Nhứ nhau hoài
TTITLE8=Mạnh Quỳnh - Nhớ nhau trong đời
TTITLE9=Tâm Đoan - Mùa dưa đỏ
EXTD=
EXTT0=
EXTT1=
EXTT2=
EXTT3=
EXTT4=
EXTT5=
EXTT6=
EXTT7=
EXTT8=
EXTT9=
PLAYORDER=
